<svg id="visual" viewBox="0 0 960 540" width="960" height="540" xmlns="http://www.w3.org/2000/svg" xmlns:xlink="http://www.w3.org/1999/xlink" version="1.1"><rect x="0" y="0" width="960" height="540" fill="#000000"></rect><path d="M0 421L10.7 421.2C21.3 421.3 42.7 421.7 64 426.3C85.3 431 106.7 440 128 439.7C149.3 439.3 170.7 429.7 192 428.2C213.3 426.7 234.7 433.3 256 430.7C277.3 428 298.7 416 320 413.7C341.3 411.3 362.7 418.7 384 424C405.3 429.3 426.7 432.7 448 435.3C469.3 438 490.7 440 512 442.2C533.3 444.3 554.7 446.7 576 447C597.3 447.3 618.7 445.7 640 438.5C661.3 431.3 682.7 418.7 704 417.3C725.3 416 746.7 426 768 425C789.3 424 810.7 412 832 405.7C853.3 399.3 874.7 398.7 896 405.2C917.3 411.7 938.7 425.3 949.3 432.2L960 439L960 541L949.3 541C938.7 541 917.3 541 896 541C874.7 541 853.3 541 832 541C810.7 541 789.3 541 768 541C746.7 541 725.3 541 704 541C682.7 541 661.3 541 640 541C618.7 541 597.3 541 576 541C554.7 541 533.3 541 512 541C490.7 541 469.3 541 448 541C426.7 541 405.3 541 384 541C362.7 541 341.3 541 320 541C298.7 541 277.3 541 256 541C234.7 541 213.3 541 192 541C170.7 541 149.3 541 128 541C106.7 541 85.3 541 64 541C42.7 541 21.3 541 10.7 541L0 541Z" fill="#ffa500"></path><path d="M0 469L10.7 468C21.3 467 42.7 465 64 463.3C85.3 461.7 106.7 460.3 128 458.3C149.3 456.3 170.7 453.7 192 450.2C213.3 446.7 234.7 442.3 256 440.7C277.3 439 298.7 440 320 442.2C341.3 444.3 362.7 447.7 384 451.7C405.3 455.7 426.7 460.3 448 462.5C469.3 464.7 490.7 464.3 512 461.2C533.3 458 554.7 452 576 446.7C597.3 441.3 618.7 436.7 640 440.8C661.3 445 682.7 458 704 463.7C725.3 469.3 746.7 467.7 768 462C789.3 456.3 810.7 446.7 832 448.5C853.3 450.3 874.7 463.7 896 469.5C917.3 475.3 938.7 473.7 949.3 472.8L960 472L960 541L949.3 541C938.7 541 917.3 541 896 541C874.7 541 853.3 541 832 541C810.7 541 789.3 541 768 541C746.7 541 725.3 541 704 541C682.7 541 661.3 541 640 541C618.7 541 597.3 541 576 541C554.7 541 533.3 541 512 541C490.7 541 469.3 541 448 541C426.7 541 405.3 541 384 541C362.7 541 341.3 541 320 541C298.7 541 277.3 541 256 541C234.7 541 213.3 541 192 541C170.7 541 149.3 541 128 541C106.7 541 85.3 541 64 541C42.7 541 21.3 541 10.7 541L0 541Z" fill="#ff539f"></path><path d="M0 485L10.7 486.7C21.3 488.3 42.7 491.7 64 493.8C85.3 496 106.7 497 128 496.7C149.3 496.3 170.7 494.7 192 492.7C213.3 490.7 234.7 488.3 256 484.5C277.3 480.7 298.7 475.3 320 475.5C341.3 475.7 362.7 481.3 384 482.5C405.3 483.7 426.7 480.3 448 481.2C469.3 482 490.7 487 512 486.8C533.3 486.7 554.7 481.3 576 477.7C597.3 474 618.7 472 640 474.8C661.3 477.7 682.7 485.3 704 485.8C725.3 486.3 746.7 479.7 768 479.8C789.3 480 810.7 487 832 489.8C853.3 492.7 874.7 491.3 896 491.5C917.3 491.7 938.7 493.3 949.3 494.2L960 495L960 541L949.3 541C938.7 541 917.3 541 896 541C874.7 541 853.3 541 832 541C810.7 541 789.3 541 768 541C746.7 541 725.3 541 704 541C682.7 541 661.3 541 640 541C618.7 541 597.3 541 576 541C554.7 541 533.3 541 512 541C490.7 541 469.3 541 448 541C426.7 541 405.3 541 384 541C362.7 541 341.3 541 320 541C298.7 541 277.3 541 256 541C234.7 541 213.3 541 192 541C170.7 541 149.3 541 128 541C106.7 541 85.3 541 64 541C42.7 541 21.3 541 10.7 541L0 541Z" fill="#0074d9"></path></svg>