<svg id="visual" viewBox="0 0 900 600" width="900" height="600" xmlns="http://www.w3.org/2000/svg" xmlns:xlink="http://www.w3.org/1999/xlink" version="1.1"><rect x="0" y="0" width="900" height="600" fill="#000000"></rect><path d="M0 490L21.5 485.8C43 481.7 86 473.3 128.8 468.8C171.7 464.3 214.3 463.7 257.2 471.2C300 478.7 343 494.3 385.8 501.2C428.7 508 471.3 506 514.2 501.3C557 496.7 600 489.3 642.8 482.8C685.7 476.3 728.3 470.7 771.2 467.8C814 465 857 465 878.5 465L900 465L900 601L878.5 601C857 601 814 601 771.2 601C728.3 601 685.7 601 642.8 601C600 601 557 601 514.2 601C471.3 601 428.7 601 385.8 601C343 601 300 601 257.2 601C214.3 601 171.7 601 128.8 601C86 601 43 601 21.5 601L0 601Z" fill="#e74c3c"></path><path d="M0 548L21.5 540C43 532 86 516 128.8 515.2C171.7 514.3 214.3 528.7 257.2 533.8C300 539 343 535 385.8 535C428.7 535 471.3 539 514.2 535.5C557 532 600 521 642.8 519.5C685.7 518 728.3 526 771.2 530.7C814 535.3 857 536.7 878.5 537.3L900 538L900 601L878.5 601C857 601 814 601 771.2 601C728.3 601 685.7 601 642.8 601C600 601 557 601 514.2 601C471.3 601 428.7 601 385.8 601C343 601 300 601 257.2 601C214.3 601 171.7 601 128.8 601C86 601 43 601 21.5 601L0 601Z" fill="#c567bf"></path><path d="M0 535L21.5 537.3C43 539.7 86 544.3 128.8 543.8C171.7 543.3 214.3 537.7 257.2 542.2C300 546.7 343 561.3 385.8 568.3C428.7 575.3 471.3 574.7 514.2 574C557 573.3 600 572.7 642.8 571.2C685.7 569.7 728.3 567.3 771.2 566.7C814 566 857 567 878.5 567.5L900 568L900 601L878.5 601C857 601 814 601 771.2 601C728.3 601 685.7 601 642.8 601C600 601 557 601 514.2 601C471.3 601 428.7 601 385.8 601C343 601 300 601 257.2 601C214.3 601 171.7 601 128.8 601C86 601 43 601 21.5 601L0 601Z" fill="#3498db"></path></svg>