<svg id="visual" viewBox="0 0 900 600" width="900" height="600" xmlns="http://www.w3.org/2000/svg" xmlns:xlink="http://www.w3.org/1999/xlink" version="1.1"><rect x="0" y="0" width="900" height="600" fill="#000000"></rect><path d="M0 464L9.3 475.3C18.7 486.7 37.3 509.3 56.2 509.2C75 509 94 486 112.8 480.3C131.7 474.7 150.3 486.3 169 499.7C187.7 513 206.3 528 225 528.7C243.7 529.3 262.3 515.7 281.2 516.3C300 517 319 532 337.8 525C356.7 518 375.3 489 394 489C412.7 489 431.3 518 450 521.8C468.7 525.7 487.3 504.3 506.2 493.8C525 483.3 544 483.7 562.8 479.2C581.7 474.7 600.3 465.3 619 475.5C637.7 485.7 656.3 515.3 675 517.3C693.7 519.3 712.3 493.7 731.2 492.7C750 491.7 769 515.3 787.8 517.3C806.7 519.3 825.3 499.7 844 495.5C862.7 491.3 881.3 502.7 890.7 508.3L900 514L900 601L890.7 601C881.3 601 862.7 601 844 601C825.3 601 806.7 601 787.8 601C769 601 750 601 731.2 601C712.3 601 693.7 601 675 601C656.3 601 637.7 601 619 601C600.3 601 581.7 601 562.8 601C544 601 525 601 506.2 601C487.3 601 468.7 601 450 601C431.3 601 412.7 601 394 601C375.3 601 356.7 601 337.8 601C319 601 300 601 281.2 601C262.3 601 243.7 601 225 601C206.3 601 187.7 601 169 601C150.3 601 131.7 601 112.8 601C94 601 75 601 56.2 601C37.3 601 18.7 601 9.3 601L0 601Z" fill="#0074D9"></path></svg>